<!--?xml version="1.0" standalone="no"?-->
              <svg id="sw-js-blob-svg" viewBox="0 0 100 100" xmlns="http://www.w3.org/2000/svg" version="1.1">
                    <defs> 
                        <linearGradient id="sw-gradient" x1="0" x2="1" y1="1" y2="0">
                            <stop id="stop1" stop-color="rgba(246.64, 246.64, 246.64, 1)" offset="0%"></stop>
                            <stop id="stop2" stop-color="rgba(239.738, 239.738, 239.738, 1)" offset="100%"></stop>
                        </linearGradient>
                    </defs>
                <path fill="url(#sw-gradient)" d="M28.6,-34.7C36,-27.8,40.3,-17.8,40,-8.7C39.7,0.5,34.8,8.9,30,17.4C25.2,26,20.5,34.7,13.8,36.5C7.1,38.3,-1.6,33.2,-8.6,28.5C-15.6,23.8,-21,19.5,-23.1,14.1C-25.2,8.8,-24,2.4,-24.9,-6.4C-25.8,-15.3,-28.7,-26.5,-24.9,-34C-21.1,-41.4,-10.5,-45.2,0,-45.2C10.6,-45.2,21.1,-41.5,28.6,-34.7Z" width="100%" height="100%" transform="translate(50 50)" stroke-width="0" style="transition: 0.3s;" stroke="url(#sw-gradient)"></path>
              </svg>